<?xml version="1.0" encoding="UTF-8" standalone="no"?>
<!-- Generator: Adobe Illustrator 16.0.0, SVG Export Plug-In . SVG Version: 6.00 Build 0)  -->

<svg
        xmlns:dc="http://purl.org/dc/elements/1.1/"
        xmlns:cc="http://creativecommons.org/ns#"
        xmlns:rdf="http://www.w3.org/1999/02/22-rdf-syntax-ns#"
        xmlns:sodipodi="http://sodipodi.sourceforge.net/DTD/sodipodi-0.dtd"
        xmlns:inkscape="http://www.inkscape.org/namespaces/inkscape"
        xmlns="http://www.w3.org/2000/svg"
        id="logo-noleam"
        x="0px"
        y="0px"
        width="2000px"
        height="1000px"
        viewBox="0 0 480 240"
        xml:space="preserve"
        version="1.1"
        sodipodi:docname="logo-noleam.svg"
        inkscape:version="0.92.4 (5da689c313, 2019-01-14)"><metadata
   id="metadata3741"><rdf:RDF><cc:Work
       rdf:about=""><dc:format>image/svg+xml</dc:format><dc:type
        rdf:resource="http://purl.org/dc/dcmitype/StillImage"/></cc:Work></rdf:RDF></metadata>
    <defs
            id="defs3739"/>
    <sodipodi:namedview
            pagecolor="#ffffff"
            bordercolor="#666666"
            borderopacity="1"
            objecttolerance="10"
            gridtolerance="10"
            guidetolerance="10"
            inkscape:pageopacity="0"
            inkscape:pageshadow="2"
            inkscape:window-width="2275"
            inkscape:window-height="1138"
            id="namedview3737"
            showgrid="false"
            inkscape:snap-bbox="true"
            inkscape:zoom="0.978"
            inkscape:cx="1454.3533"
            inkscape:cy="500"
            inkscape:window-x="106"
            inkscape:window-y="0"
            inkscape:window-maximized="0"
            inkscape:current-layer="logo-noleam"/>
    <style
            type="text/css"
            id="style3728">
                    .frame {
                        stroke: #fff;
                        fill:   #fff;
                    }
                    .texte {
                		stroke : #FF4B45;
                		fill:#FF4B45;
                    }
            </style>

    <path
            class="frame"
            d="m 49.68,40.56 h 380.88 c -0.0154,55.171233 2.726,43.025 -8.4,54 V 48.96 H 58.08 v 27.36 c -2.8,3.2 -5.601,6.4 -8.4,9.6 z"
            id="path3730"
            style="fill:#ffffff;fill-opacity:1;fill-rule:evenodd;stroke:#ffffff"
            inkscape:connector-curvature="0"
            sodipodi:nodetypes="cccccccc"/>
    <path
            class="texte"
            fill-rule="evenodd"
            fill="none"
            d="M231.84,122.16c-0.806,12.819-3.361,27.874,5.76,33.84c9.4,6.148,27.36,2.629,36.96-0.72  c2.343-0.817,7.244-1.372,8.4-3.36c1.04-4.24,2.08-8.48,3.12-12.72c-3.432,0.259-7.382,1.155-11.04,0.48  c-0.4-0.48-0.8-0.96-1.2-1.44c0.08-0.56,0.16-1.12,0.24-1.68c1.874-3.519,9.845-3.929,13.92-5.28  c2.353-14.826,12.613-36.712,20.16-47.04c3.103-4.247,6.699-8.833,12.72-10.08c6.523-1.351,9.919,2.939,12.24,6  c6.993,9.222,12.971,23.41,15.12,36.96c0.08,0,0.16,0,0.24,0c-0.192-11.404,3.163-33.797,8.64-39.6  c2.023-2.144,6.079-5.647,11.04-3.84c4.825,1.757,4.632,7.62,3.36,12.96c-3.287,13.793-4.146,28.92-5.76,44.64c0.08,0,0.16,0,0.24,0  c0-0.16,0-0.32,0-0.48c2.08-5.439,4.16-10.88,6.24-16.32c5.039-11.879,10.615-23.382,18-32.88c3.351-4.31,10.322-11.912,18-7.2  c12.066,7.404,4.344,37.331,1.68,50.64c-0.891,4.451-2.265,11.735-0.24,15.36c0.24-0.16,0.48-0.32,0.72-0.48  c4.892-16.219,14.201-37.383,23.04-50.16c2.574-3.72,8.286-12.241,15.84-8.88c6.043,2.689,5.042,12.373,5.04,21.12  c-0.003,15.292-1.457,32.599,1.44,46.08c0.88,3.2,1.76,6.4,2.64,9.6c0.975,2.273,3.014,3.688,3.36,6.48  c-0.56,0.64-1.12,1.28-1.68,1.92c-0.72-0.08-1.44-0.16-2.16-0.24c-4.111-2.056-5.461-8.95-6.72-13.92  c-2.188-8.636-4.39-28.128-2.64-39.6c0-5.679,0-11.36,0-17.04c-0.68-0.267-0.791-0.437-1.44-0.24  c-4.367,1.161-6.066,8.171-8.16,11.76c-5.846,10.021-10.252,21.656-14.88,32.88c-2.503,6.071-4.529,12.958-12.48,13.44  c-7.134,0.432-9.49-9.63-8.16-17.76c1.04-7.199,2.08-14.4,3.12-21.6c1.814-8.41,4.53-19.933,2.4-29.52  c-0.32-0.24-0.64-0.48-0.96-0.72c-5.275,0.961-9.125,9.237-11.76,13.2c-9.412,14.157-17.051,30.762-22.56,48.72  c-1.545,5.036-1.961,18.397-4.56,21.6c-4.404,5.427-13.472,0.319-17.28-2.16c-1.11-8.7-1.783-21.272-6-27.36  c-4.479-0.72-8.96-1.44-13.44-2.16c-8.895-1.377-18.532,0.42-26.88,0.96c-0.51,6.048-6.66,29.801-10.08,32.4  c-7.488,5.69-14.894-1.987-13.92-10.32c-14.702,5.684-50.044,13.125-62.16-0.24c-19.534,7.884-63.061,17.057-65.76-12.96  c-0.16,0.08-0.32,0.16-0.48,0.24c-7.522,21.393-56.428,32.339-65.76,5.04c-0.08,0-0.16,0-0.24,0c0.437,4.208-0.031,8.22-3.12,9.6  c-8.497,4.569-10.112-10.183-11.04-16.32c-1.078-7.125,0.13-15.862,1.2-22.32c0.48-5.439,0.96-10.88,1.44-16.32  c0.799-5.063,1.14-13.196-1.2-16.56c-8.347-2.309-12.528,4.599-16.08,9.36c-9.308,12.477-17.356,26.649-21.6,44.16  c-2.25,9.282,3.5,25.307-6.48,27.36c-9.702,1.996-11.994-11.783-13.44-18.96c-3.523-17.479-2.008-42.079,1.68-58.08  c1.829-7.937,2.492-14.49,9.36-17.28c7.069-2.872,12.535,1.722,10.8,9.36c-2.418,10.644-3.355,21.528-5.28,33.84  c-0.488,3.124-1.423,9.514-0.24,12.72c1.588-15.055,23.369-42.636,34.08-49.44c17.234-10.947,27.938,1.744,23.76,22.32  c2.461-1.752,4.426-2.175,7.68-3.6c-5.357-18.427,21.67-28.529,38.88-23.28c8.078,2.464,14.087,7.537,18,14.16  c1.04,2.16,2.08,4.32,3.12,6.48c0.671-8.123,3.823-19.619,9.12-23.52c4.12-3.034,11.292-3.354,12.72,2.4  c1.382,5.57-1.918,12.365-3.12,17.04c-3.064,11.921-5.691,25.243-6,38.88c-0.157,6.932-0.801,15.372,2.16,19.92  c4.387,6.738,16.058,7.103,26.4,5.76c5.236-0.68,12.19-1.681,15.84-4.32c-3.333-6.833-3.743-19.985-1.92-29.28  c-2.423,0.361-4.691,1.299-6.96,0.96c-0.4-0.48-0.8-0.96-1.2-1.44c-0.988-3.788,5.459-5.591,8.64-6  c0.273-8.852,3.301-21.372,6-29.04c-3.994,1.192-6.912,4.519-11.04,4.8c-0.72-0.56-1.44-1.12-2.16-1.68c0-0.48,0-0.96,0-1.44  c9.169-13.346,42.772-17.085,65.28-12.96c6.005,1.101,15.554,0.455,19.2,4.08c0.013,1.792-0.306,2.158-0.96,3.12  c-4.421,1.137-13.066-0.614-18.48-1.44c-10.827-1.651-22.573,0.513-32.64,0.96c-1.04,4-2.08,8-3.12,12  c-1.28,6.559-2.56,13.121-3.84,19.68c14.243-0.14,29.247-0.006,41.76,2.88c0.591,0.777,1.291,1.351,0.96,2.4  c-0.32,0.64-0.64,1.28-0.96,1.92c-4.323,0.979-12.361-0.403-17.52-1.2C248.481,122.16,240.159,122.16,231.84,122.16z  M118.56,83.52c-3.796,1.504-6.984,1.444-9.84,3.6c-6.697,5.055-3.745,15.672,1.92,19.44  c2.578,1.714,6.086,2.961,9.6,3.6c2.319,0,4.64,0,6.96,0c1.073,0.387,1.455,1.561,1.68,2.88c-0.389,0.769-0.444,1.005-1.2,1.44  c-6.379,4.244-18.32-3.021-21.84-4.56c-1.545,4.629-3.639,9.255-4.8,14.64c-3.688,17.105,0.054,40.744,19.92,35.76  c2.8-1.12,5.6-2.24,8.4-3.36C153.557,142.311,158.21,83.155,118.56,83.52z  M325.68,83.76c-9.445,12.152-12.789,29.057-18.48,45.12  c14.336-0.471,26.888,1.382,38.64,3.36c0-0.96,0-1.92,0-2.88c-3.353-13.64-5.765-24.975-11.28-35.76  C332.73,90.022,330.772,83.943,325.68,83.76z"
            id="path3732"/>
    <path
            class="frame"
            d="M58.08,190.56c121.348,0,242.732,0,364.08,0c0-11.439,0-22.881,0-34.32  c2.72-4.88,5.44-9.761,8.16-14.64c0.08,0,0.16,0,0.24,0c0,19.118,0,38.242,0,57.36c-126.947,0-253.933,0-380.88,0  c0-26.397,0-52.803,0-79.2c2.72-3.52,5.44-7.04,8.16-10.56c0.08,0,0.16,0,0.24,0C58.08,136.317,58.08,163.443,58.08,190.56z"
            id="path3734"/>
</svg>